<?xml version="1.0" encoding="UTF-8" standalone="no"?>
<!-- Created with Inkscape (http://www.inkscape.org/) -->

<svg
   xmlns:dc="http://purl.org/dc/elements/1.1/"
   xmlns:cc="http://creativecommons.org/ns#"
   xmlns:rdf="http://www.w3.org/1999/02/22-rdf-syntax-ns#"
   xmlns:svg="http://www.w3.org/2000/svg"
   xmlns="http://www.w3.org/2000/svg"
   xmlns:sodipodi="http://sodipodi.sourceforge.net/DTD/sodipodi-0.dtd"
   xmlns:inkscape="http://www.inkscape.org/namespaces/inkscape"
   width="210mm"
   height="297mm"
   viewBox="0 0 210 297"
   version="1.1"
   id="svg8"
   sodipodi:docname="logo.svg"
   inkscape:version="0.92.1 r15371">
  <defs
     id="defs2" />
  <sodipodi:namedview
     id="base"
     pagecolor="#ffffff"
     bordercolor="#666666"
     borderopacity="1.0"
     inkscape:pageopacity="0.0"
     inkscape:pageshadow="2"
     inkscape:zoom="0.35"
     inkscape:cx="400"
     inkscape:cy="560"
     inkscape:document-units="mm"
     inkscape:current-layer="layer1"
     showgrid="false"
     inkscape:window-width="1920"
     inkscape:window-height="1001"
     inkscape:window-x="-9"
     inkscape:window-y="-9"
     inkscape:window-maximized="1" />
  <metadata
     id="metadata5">
    <rdf:RDF>
      <cc:Work
         rdf:about="">
        <dc:format>image/svg+xml</dc:format>
        <dc:type
           rdf:resource="http://purl.org/dc/dcmitype/StillImage" />
        <dc:title></dc:title>
      </cc:Work>
    </rdf:RDF>
  </metadata>
  <g
     inkscape:label="Capa 1"
     inkscape:groupmode="layer"
     id="layer1">
    <g
       id="g44">
      <path
         inkscape:transform-center-y="-47.171429"
         inkscape:transform-center-x="4.1577363"
         style="fill:#a6a6a6;stroke-width:0.21166667"
         d="m 86.746889,83.844091 c 0.03583,-1.40421 0.0459,-1.43622 0.118507,-0.37683 0.04364,0.63676 0.180563,1.2797 0.304263,1.42875 0.331451,0.39937 34.940441,0.39849 35.271901,-8.5e-4 0.12412,-0.14954 0.26064,-0.84011 0.30339,-1.53458 0.0731,-1.18773 0.0801,-1.1653 0.11776,0.37774 l 0.04,1.64036 H 104.80523 86.707734 Z m -3.802351,-5.3975 0.04681,-3.33375 0.06467,3.11947 c 0.07328,3.53477 -0.09422,3.25873 2.064217,3.40165 0.747414,0.0495 0.576407,0.0813 -0.582083,0.10823 l -1.640417,0.0382 z m 7.149863,1.53459 v -1.79917 h -1.799167 -1.799166 v -3.59833 -3.59834 h 1.905 1.905 v -1.79916 -1.79917 h 3.4925 3.4925 v 3.59833 3.59834 h 1.799167 1.799165 v -3.59834 -3.59833 h 3.81 3.81 v 3.59833 3.59834 h 1.79917 1.79917 v -3.59834 -3.59833 h 3.4925 3.4925 v 1.79917 1.79916 h 1.905 1.905 v 3.59834 3.59833 h -1.79917 -1.79917 v 1.79917 1.79916 h -14.605 -14.604999 z m 34.430829,1.64291 c 0.71775,-0.0411 1.40551,-0.1958 1.52836,-0.34382 0.12538,-0.15107 0.25215,-1.56289 0.28899,-3.21828 l 0.0656,-2.94915 0.0464,3.33375 0.0464,3.33375 -1.64042,-0.0408 c -1.59331,-0.0396 -1.60294,-0.0429 -0.33542,-0.11547 z m -44.972705,-8.68083 0.04146,-1.64042 0.07401,1.42714 c 0.08169,1.5752 0.05677,1.55223 1.853908,1.70878 0.51925,0.0452 0.294149,0.0875 -0.582083,0.10933 l -1.42875,0.0356 z m 48.571725,1.48496 c 0.60171,-0.0424 1.19166,-0.19479 1.311,-0.33858 0.11933,-0.14379 0.25195,-0.82965 0.29471,-1.52412 0.0731,-1.18772 0.0801,-1.1653 0.11775,0.37774 l 0.04,1.64042 -1.42875,-0.0392 c -1.31088,-0.0359 -1.33849,-0.0455 -0.33474,-0.1163 z M 75.701067,58.285341 v -12.7 l 1.534584,0.037 c 1.016842,0.0245 1.213227,0.0612 0.582083,0.10874 -0.523875,0.0395 -1.166812,0.11989 -1.42875,0.17872 l -0.47625,0.10696 v 12.14088 c 0,9.64722 0.05601,12.18737 0.272701,12.36721 0.149985,0.12447 0.888172,0.26066 1.640417,0.30263 1.317612,0.0735 1.303746,0.0778 -0.378535,0.1171 l -1.74625,0.0408 z m 55.979983,12.54197 c 0.83822,-0.0427 1.54553,-0.18479 1.63718,-0.32896 0.0887,-0.13961 0.16282,-5.64762 0.1646,-12.24001 0.003,-9.48521 -0.0533,-12.03309 -0.26776,-12.21107 -0.14905,-0.1237 -0.79199,-0.26062 -1.42875,-0.30427 -1.05939,-0.0726 -1.02738,-0.0827 0.37683,-0.1185 l 1.53459,-0.0392 v 12.7 12.7 l -1.74625,-0.0414 -1.74625,-0.0415 z m -52.381649,-7.03863 v -3.59834 h 3.704167 3.704166 v -1.905 -1.905 h 1.799167 1.799167 v -5.3975 -5.3975 h -1.799167 -1.799167 v -3.59833 -3.59834 h 1.799167 1.799167 v 1.69334 1.69333 h 3.704167 3.704166 v -1.905 -1.905 h 1.799167 1.799162 v -3.38667 -3.386662 h 3.38667 3.38667 v 3.386662 3.38667 h 1.79917 1.79916 v 1.905 1.905 h 3.70417 3.70417 v -1.69333 -1.69334 h 1.905 1.905 v 3.59834 3.59833 h -1.79917 -1.79917 v 5.3975 5.3975 h 1.79917 1.79917 v 1.905 1.905 h 3.59833 3.59833 v 3.59834 3.59833 h -3.59833 -3.59833 v -1.79917 -1.79916 h -5.50334 -5.50333 v -1.905 -1.905 h 1.79917 1.79916 v -5.3975 -5.39751 h -1.79916 -1.79917 v -1.79916 -1.79917 h -7.19667 -7.196665 v 1.79917 1.79916 h -1.799167 -1.799167 v 5.39751 5.3975 h 1.799167 1.799167 v 1.905 1.905 h -5.3975 -5.397501 v 1.79916 1.79917 h -3.704166 -3.704167 z m 0.04643,-22.06626 -0.04643,-3.33375 1.42875,0.0392 c 1.310871,0.0359 1.338489,0.0455 0.334734,0.1163 -0.601709,0.0424 -1.194221,0.19788 -1.316692,0.34545 -0.124534,0.15005 -0.251602,1.5681 -0.288305,3.21745 l -0.06563,2.94914 z m 50.541909,0.16279 c 0,-3.45014 0.14373,-3.18237 -1.79917,-3.35162 -0.51925,-0.0452 -0.29415,-0.0875 0.58208,-0.10933 l 1.42875,-0.0356 v 3.28084 c 0,1.80446 -0.0476,3.28083 -0.10583,3.28083 -0.0582,0 -0.10583,-1.37931 -0.10583,-3.06513 z m -47.164691,-5.56029 -0.03698,-1.53458 1.640416,0.0415 1.640417,0.0415 -1.427135,0.074 c -1.588042,0.0824 -1.564513,0.0554 -1.707981,1.95974 -0.04755,0.63114 -0.08423,0.43476 -0.108737,-0.58209 z m 43.735201,0.10584 -0.063,-1.32292 -1.37584,-0.12222 -1.37583,-0.12221 1.53458,-0.0365 1.53459,-0.0365 v 1.48167 c 0,1.83916 -0.16941,1.94484 -0.25449,0.15875 z m -3.55551,-3.30783 c 0,-0.770815 -0.10605,-1.3321 -0.27878,-1.475446 -0.16287,-0.135171 -1.50488,-0.258645 -3.22791,-0.296989 l -2.94915,-0.06563 3.33375,-0.04643 3.33375,-0.04643 v 1.5875 c 0,0.873125 -0.0476,1.587505 -0.10583,1.587505 -0.0582,0 -0.10583,-0.55984 -0.10583,-1.24408 z m -36.366649,-0.396339 -0.04002,-1.534583 3.439583,0.04662 3.439584,0.04662 -3.054765,0.06526 c -1.729067,0.03694 -3.17148,0.162124 -3.323711,0.288464 -0.147921,0.122764 -0.303079,0.76298 -0.344797,1.422708 -0.07177,1.13504 -0.078,1.11704 -0.115872,-0.335091 z m 7.407465,-3.4925 -0.03915,-1.640417 h 11.006664 11.00667 l -0.0323,1.534584 -0.0323,1.534583 -0.12647,-1.305512 c -0.0696,-0.718032 -0.18294,-1.361875 -0.25196,-1.430764 -0.069,-0.06889 -4.82116,-0.100533 -10.56031,-0.07032 -9.014205,0.04745 -10.459582,0.09816 -10.616776,0.37243 -0.10008,0.174625 -0.211887,0.841375 -0.248457,1.481667 -0.05335,0.934129 -0.07423,0.840023 -0.105647,-0.47625 z"
         id="path29"
         inkscape:connector-curvature="0" />
      <path
         inkscape:transform-center-y="-47.159518"
         inkscape:transform-center-x="4.1577128"
         style="fill:#6e6e6e;stroke-width:0.21166667"
         d="m 87.182048,84.902431 c -0.116887,-0.14552 -0.253543,-0.8579 -0.303685,-1.58305 -0.05014,-0.72515 -0.156779,-1.38408 -0.236973,-1.46427 -0.0802,-0.0802 -0.693389,-0.18241 -1.362651,-0.22714 -2.339419,-0.15634 -2.13019,0.17873 -2.20736,-3.53504 -0.0373,-1.79492 -0.134543,-3.32996 -0.216105,-3.4112 -0.08156,-0.0812 -0.605437,-0.18975 -1.164167,-0.24115 -2.040519,-0.1877 -1.968373,-0.12741 -1.968373,-1.64498 0,-1.77191 -0.245281,-2.02192 -1.983619,-2.02192 -0.743185,0 -1.429199,-0.11082 -1.572381,-0.254 -0.191643,-0.19165 -0.254,-3.23055 -0.254,-12.37847 v -12.12447 l 0.47625,-0.0982 c 0.261938,-0.054 0.978406,-0.13727 1.592155,-0.18508 0.613746,-0.0478 1.185246,-0.15599 1.27,-0.24041 0.08475,-0.0844 0.185312,-1.54992 0.223465,-3.25668 0.03815,-1.70675 0.159514,-3.2118 0.269693,-3.34456 0.110179,-0.13276 0.76752,-0.2824 1.46076,-0.33255 0.693238,-0.0501 1.323846,-0.15458 1.401346,-0.23208 0.0775,-0.0775 0.180029,-0.64307 0.227838,-1.25682 0.164251,-2.10857 0.07961,-2.01226 1.846618,-2.10149 0.86628,-0.0437 1.648619,-0.1531 1.738533,-0.24301 0.08991,-0.0899 0.202505,-0.77636 0.250202,-1.52544 0.0477,-0.74907 0.195923,-1.452575 0.32939,-1.563342 0.133464,-0.110766 1.697816,-0.23242 3.476333,-0.27034 3.69723,-0.07883 3.632452,-0.04537 3.63751,-1.878697 0.0017,-0.646112 0.117541,-1.28905 0.257241,-1.42875 0.190684,-0.190683 2.854253,-0.254 10.685132,-0.254 h 10.43114 l 0.0982,0.47625 c 0.054,0.261938 0.13726,0.978407 0.18507,1.592154 0.0478,0.613747 0.156,1.185247 0.24042,1.27 0.0844,0.08475 1.54992,0.185312 3.25667,0.223465 1.73729,0.03884 3.22047,0.166703 3.36964,0.290501 0.15555,0.1291 0.26779,0.716876 0.26969,1.412299 0.002,0.65514 0.0894,1.32739 0.19481,1.49389 0.12429,0.19639 0.73649,0.34508 1.74301,0.42333 l 1.55144,0.12061 0.11908,1.5302 c 0.0655,0.84161 0.17986,1.59096 0.25413,1.66524 0.0743,0.0743 0.59218,0.17709 1.15091,0.22849 2.12096,0.1951 1.92979,-0.14261 2.0064,3.54432 0.0373,1.79492 0.14125,3.33666 0.23101,3.4261 0.0898,0.0894 0.75652,0.20364 1.48167,0.25378 0.72515,0.0501 1.43752,0.1868 1.58305,0.30368 0.20601,0.16548 0.26458,2.85017 0.26458,12.12846 0,6.55377 -0.0578,12.06661 -0.12848,12.25075 -0.0998,0.26003 -0.45099,0.33482 -1.57238,0.33482 -1.84618,0 -2.10914,0.23616 -2.10914,1.8942 0,0.72915 -0.1076,1.31505 -0.26458,1.44065 -0.14553,0.11643 -0.81217,0.25498 -1.48143,0.3079 -0.66926,0.0529 -1.28838,0.16748 -1.37583,0.25459 -0.0875,0.0871 -0.19021,1.55482 -0.22836,3.26157 -0.0388,1.73729 -0.16671,3.22047 -0.2905,3.36964 -0.13127,0.15817 -0.72057,0.26645 -1.4501,0.26645 -1.60533,0 -1.8942,0.28636 -1.8942,1.87778 0,0.6669 -0.1143,1.32685 -0.254,1.46655 -0.37745,0.37745 -34.951676,0.36707 -35.255022,-0.0106 z m 34.997832,-0.21192 c 0.0874,-0.0874 0.20182,-0.70657 0.25428,-1.37583 0.12847,-1.63889 0.44448,-1.95767 1.94072,-1.95767 0.65717,0 1.30916,-0.1143 1.44886,-0.254 0.17331,-0.17332 0.254,-1.19339 0.254,-3.21125 0,-3.53624 0.0936,-3.73142 1.78964,-3.73142 0.59896,0 1.20332,-0.1143 1.34302,-0.254 0.1397,-0.1397 0.254,-0.77514 0.254,-1.41208 0,-1.52408 0.36172,-1.93225 1.71236,-1.93225 0.55646,0 1.25608,-0.0929 1.5547,-0.20643 l 0.54294,-0.20643 v -11.81624 c 0,-8.90818 -0.0625,-11.87875 -0.254,-12.07024 -0.1397,-0.1397 -0.77514,-0.254 -1.41208,-0.254 -1.82255,0 -1.92815,-0.18199 -1.95335,-3.36655 -0.0291,-3.67448 -0.0424,-3.70882 -1.46666,-3.79 -1.54297,-0.088 -1.89891,-0.43603 -1.89891,-1.85697 0,-1.44638 -0.32818,-1.78148 -1.7447,-1.78148 -1.49525,0 -1.85363,-0.36647 -1.85363,-1.89547 0,-0.657171 -0.1143,-1.309159 -0.254,-1.448859 -0.17361,-0.173613 -1.20156,-0.254 -3.24803,-0.254 -3.5448,0 -3.63444,-0.04813 -3.73551,-2.005572 l -0.065,-1.258018 -0.84667,-0.17713 c -1.03368,-0.216255 -19.692049,-0.115805 -19.914765,0.107215 -0.08733,0.08745 -0.201701,0.706572 -0.254161,1.375833 -0.15051,1.920145 -0.224229,1.957672 -3.845712,1.957672 -2.128781,0 -3.179431,0.07957 -3.353861,0.254 -0.1397,0.1397 -0.254,0.775138 -0.254,1.412079 0,1.52408 -0.361721,1.93225 -1.71236,1.93225 -0.556461,0 -1.256074,0.0929 -1.554694,0.20643 -0.495109,0.18824 -0.542946,0.31265 -0.542946,1.41209 0,1.60134 -0.342121,1.97982 -1.78964,1.97982 -0.598963,0 -1.203327,0.1143 -1.343027,0.254 -0.173613,0.17361 -0.254,1.20156 -0.254,3.24803 0,3.54625 -0.04751,3.63453 -2.010126,3.73551 l -1.262571,0.065 -0.171695,1.02911 c -0.206983,1.24062 -0.111608,22.8967 0.10178,23.10984 0.08244,0.0823 0.785217,0.21547 1.561734,0.29584 1.621453,0.16783 1.992545,0.49053 1.992545,1.73272 0,0.43584 0.09289,1.03676 0.206428,1.33538 0.18503,0.48667 0.320425,0.54294 1.30625,0.54294 1.744256,0 1.869235,0.2146 1.899031,3.26073 0.01378,1.40805 0.0858,2.84586 0.160062,3.19511 0.131267,0.61736 0.173086,0.63678 1.505435,0.69928 1.68728,0.0791 2.118339,0.40593 2.12235,1.60894 0.0048,1.43347 0.17668,1.78587 0.918295,1.88249 1.21035,0.15768 33.965348,0.046 34.127628,-0.11638 z M 97.502735,61.892241 v -1.89645 l -1.74625,-0.0615 -1.74625,-0.0615 v -5.29166 -5.29167 l 1.737825,-0.0613 1.737826,-0.0613 0.06134,-1.73783 0.06134,-1.73783 h 7.090834 7.09084 l 0.0613,1.73783 0.0613,1.73783 1.73782,0.0613 1.73783,0.0613 v 5.29167 5.29166 l -1.74625,0.0615 -1.74625,0.0615 v 1.89645 1.89644 h -7.19667 -7.196667 z m -18.203334,-7.0944 v -5.4025 h 1.799167 1.799166 v -3.70417 -3.70416 h 1.905 1.905 v 1.7906 1.79061 l 1.74625,0.0615 1.746251,0.0615 v 5.29167 5.29167 l -1.738133,0.0613 -1.738133,0.0614 -0.06103,1.84365 -0.06103,1.84366 -3.65125,0.0579 -3.65125,0.0579 z m 43.744449,5.25139 c -0.0776,-0.0776 -0.14111,-0.93101 -0.14111,-1.89644 v -1.75533 l -1.74625,-0.0615 -1.74625,-0.0615 v -5.29167 -5.29167 l 1.74625,-0.0615 1.74625,-0.0615 v -1.79061 -1.7906 h 1.79916 1.79917 v 3.70416 3.70417 h 1.79917 1.79916 v 5.3975 5.3975 h -3.45722 c -1.90147,0 -3.52072,-0.0635 -3.59833,-0.14111 z M 90.452114,41.639171 c -0.08033,-0.0803 -0.146046,-1.65418 -0.146046,-3.49744 v -3.35139 h 3.598333 3.598334 v -1.79917 -1.799162 h 1.910374 1.910381 l -0.0583,3.333752 -0.0583,3.33375 -1.738131,0.0613 -1.738133,0.0614 -0.06103,1.84365 -0.06103,1.84366 -3.505204,0.0579 c -1.92786,0.0318 -3.570923,-0.008 -3.65125,-0.0882 z m 21.378336,0 c -0.0803,-0.0803 -0.14605,-0.93595 -0.14605,-1.90138 v -1.75533 l -1.74625,-0.0615 -1.74625,-0.0615 -0.0583,-3.33375 -0.0583,-3.333752 h 1.80454 1.80454 v 1.799162 1.79917 h 3.70941 3.70941 l -0.0582,3.43958 -0.0582,3.43959 -3.5052,0.0579 c -1.92786,0.0318 -3.57092,-0.008 -3.65125,-0.0882 z"
         id="path27"
         inkscape:connector-curvature="0" />
    </g>
  </g>
</svg>
